<svg version="1.1" id="レイヤー_1" xmlns="http://www.w3.org/1999/xlink" viewBox="0 0 50 50">
<style type="text/css">
	.st0{fill:#CD5235;}
</style>
<path d="M48.84,46.4H1.16C0.52,46.4,0,45.88,0,45.24v-2.06c0-0.64,0.52-1.16,1.16-1.16h47.68c0.64,0,1.16,0.52,1.16,1.16v2.06
	C50,45.88,49.48,46.4,48.84,46.4z"/>
<path d="M22.81,37.85V4.76c0-0.64,0.52-1.16,1.16-1.16h2.06c0.64,0,1.16,0.52,1.16,1.16v33.09c0,0.64-0.52,1.16-1.16,1.16h-2.06
	C23.33,39.01,22.81,38.49,22.81,37.85z"/>
<path d="M44.04,20.46L42.58,19c-0.45-0.45-1.19-0.45-1.64,0l-16,16L9.06,19.14c-0.45-0.45-1.19-0.45-1.64,0L5.96,20.6
	c-0.45,0.45-0.45,1.19,0,1.64L24.12,40.4c0.45,0.45,1.19,0.45,1.64,0l1.46-1.46c0.02-0.02,0.02-0.04,0.04-0.06L44.04,22.1
	C44.49,21.65,44.49,20.92,44.04,20.46z"/>
<path d="M0,45.22v-6.78c0-0.65,0.53-1.18,1.18-1.18H3.2c0.65,0,1.18,0.53,1.18,1.18v6.78c0,0.65-0.53,1.18-1.18,1.18H1.18
	C0.53,46.4,0,45.87,0,45.22z"/>
<path d="M45.61,45.11v-6.57c0-0.71,0.58-1.29,1.29-1.29h1.81c0.71,0,1.29,0.58,1.29,1.29v6.57c0,0.71-0.58,1.29-1.29,1.29H46.9
	C46.19,46.4,45.61,45.82,45.61,45.11z"/>
<path class="st0" d="M16.76,40.29"/>
</svg>
